<?xml version="1.0" encoding="iso-8859-1"?>
<!-- Generator: Adobe Illustrator 19.0.0, SVG Export Plug-In . SVG Version: 6.00 Build 0)  -->
<svg version="1.1" id="Capa_1" xmlns="http://www.w3.org/2000/svg" xmlns:xlink="http://www.w3.org/1999/xlink" x="0px" y="0px"
	 viewBox="0 0 360 360" style="enable-background:new 0 0 360 360;" xml:space="preserve">
<g id="XMLID_982_">
	<path id="XMLID_983_" style="fill:#00D7DF;" d="M360,23.333H200l-20,10l-20-10H0v290h137.773
		c8.888,13.992,24.515,23.333,42.227,23.333h0c17.712,0,33.339-9.342,42.227-23.333H360V23.333z"/>
	<path id="XMLID_984_" style="fill:#00969B;" d="M200,23.333l-18.75,9.375v303.917c17.193-0.43,32.299-9.632,40.977-23.292H360v-290
		H200z"/>
	<polygon id="XMLID_985_" style="fill:#FFEB99;" points="40,273.333 40,63.333 150.557,63.333 180,78.055 209.443,63.333 
		320,63.333 320,273.333 	"/>
	<polygon id="XMLID_986_" style="fill:#FFE477;" points="209.443,63.333 181.25,77.43 181.25,273.333 320,273.333 320,63.333 	"/>
	<rect id="XMLID_37_" x="65" y="103.333" style="fill:#FFDA44;" width="80" height="20"/>
	<rect id="XMLID_36_" x="65" y="158.333" style="fill:#FFDA44;" width="80" height="20"/>
	<rect id="XMLID_35_" x="65" y="213.333" style="fill:#FFDA44;" width="80" height="20"/>
	<rect id="XMLID_34_" x="215" y="103.333" style="fill:#FFCD00;" width="80" height="20"/>
	<rect id="XMLID_33_" x="215" y="158.333" style="fill:#FFCD00;" width="80" height="20"/>
	<rect id="XMLID_32_" x="215" y="213.333" style="fill:#FFCD00;" width="80" height="20"/>
	<polygon id="XMLID_3_" style="fill:#00969B;" points="250,60 298.148,60 298.148,150 274.074,140 250,150 	"/>
</g>
<g>
</g>
<g>
</g>
<g>
</g>
<g>
</g>
<g>
</g>
<g>
</g>
<g>
</g>
<g>
</g>
<g>
</g>
<g>
</g>
<g>
</g>
<g>
</g>
<g>
</g>
<g>
</g>
<g>
</g>
</svg>
